<svg xmlns="http://www.w3.org/2000/svg" viewBox="0 0 64 64">
  <defs>
    <linearGradient id="g" x1="0" y1="0" x2="1" y2="1">
      <stop offset="0" stop-color="#B69DF8"/>
      <stop offset="1" stop-color="#4CC9F0"/>
    </linearGradient>
  </defs>
  <!-- dark Material surface matching the app shell -->
  <rect x="2" y="2" width="60" height="60" rx="15" fill="#141218"/>
  <rect x="3" y="3" width="58" height="58" rx="14" fill="none" stroke="url(#g)" stroke-width="2" opacity="0.45"/>
  <!-- Material Icons 'movie_filter' — the app's brand icon — in the brand gradient -->
  <g transform="translate(11 11) scale(1.75)">
    <path fill="url(#g)" d="M18 4l2 3h-3l-2-3h-2l2 3h-3l-2-3H8l2 3H7L5 4H4c-1.1 0-1.99.9-1.99 2L2 18c0 1.1.9 2 2 2h16c1.1 0 2-.9 2-2V4h-4zm-6.75 11.25L10 18l-1.25-2.75L6 14l2.75-1.25L10 10l1.25 2.75L14 14l-2.75 1.25zm5.69-3.31L16 14l-.94-2.06L13 11l2.06-.94L16 8l.94 2.06L19 11l-2.06.94z"/>
  </g>
</svg>
